<?xml version="1.0" standalone="no"?>
<!DOCTYPE svg PUBLIC "-//W3C//DTD SVG 20010904//EN"
 "http://www.w3.org/TR/2001/REC-SVG-20010904/DTD/svg10.dtd">
<svg version="1.0" xmlns="http://www.w3.org/2000/svg"
 width="2363.000000pt" height="884.000000pt" viewBox="0 0 2363.000000 884.000000"
 preserveAspectRatio="xMidYMid meet">

<g transform="translate(0.000000,884.000000) scale(0.100000,-0.100000)"
fill="#000000" stroke="none">
<path d="M2411 8233 c-6 -21 -91 -364 -190 -763 -267 -1074 -290 -1159 -1237
-4634 -300 -1100 -557 -2049 -570 -2110 -14 -61 -27 -119 -30 -128 -5 -17 61
-18 1288 -18 l1294 0 398 1557 c220 857 402 1561 405 1566 5 5 766 -2715 869
-3105 4 -17 75 -18 1313 -18 l1309 0 -5 23 c-18 77 -655 3310 -655 3326 0 20
6 21 286 23 l287 3 753 2155 c414 1185 754 2156 754 2158 0 1 -1408 2 -3130 2
l-3129 0 -10 -37z m2518 -1527 c87 -252 161 -459 163 -462 3 -2 216 1 474 7
258 6 487 9 509 7 l40 -3 -403 -315 c-290 -227 -401 -319 -396 -330 19 -49
324 -943 322 -945 -2 -1 -187 125 -413 282 -225 156 -415 286 -421 289 -6 3
-195 -133 -418 -301 -224 -169 -409 -305 -410 -303 -2 1 62 219 140 483 79
264 143 483 141 487 -1 4 -184 138 -407 298 -223 159 -406 295 -408 300 -2 6
51 10 145 10 196 1 864 18 868 22 2 2 68 215 146 473 78 259 144 474 147 479
2 5 8 2 13 -6 4 -8 80 -221 168 -472z"/>
<path d="M8200 6078 c-425 -1206 -786 -2230 -803 -2275 l-30 -83 -224 0 -225
0 5 -22 c22 -92 568 -2741 618 -3000 l23 -118 252 0 c232 0 253 1 258 18 3 9
194 706 426 1547 231 842 424 1539 429 1550 7 17 10 15 19 -20 6 -22 182 -710
392 -1530 210 -820 385 -1507 391 -1527 l10 -38 1293 0 1294 0 -28 133 c-16
72 -222 843 -459 1712 -734 2698 -812 2988 -1261 4705 l-296 1135 -655 3 -655
2 -774 -2192z m1460 -1117 c104 -388 188 -706 187 -708 -2 -2 -180 -2 -394 -1
l-391 3 196 724 c134 494 199 717 204 705 4 -11 93 -336 198 -723z"/>
<path d="M10580 8261 c0 -44 58 -290 146 -616 561 -2079 1269 -4679 1677
-6155 l252 -915 1346 -3 1345 -2 62 212 c98 338 1113 4058 1371 5023 113 426
172 652 416 1595 118 459 218 843 221 853 5 16 -57 17 -1242 15 l-1248 -3
-461 -2287 c-254 -1258 -464 -2290 -466 -2293 -3 -2 -213 1018 -468 2268 -254
1250 -465 2282 -468 2295 l-5 22 -1239 0 c-775 0 -1239 -4 -1239 -9z"/>
<path d="M17661 8073 c-565 -2128 -1986 -7449 -1997 -7477 -6 -15 253 -16
2762 -14 l2768 3 306 928 307 927 -1509 0 -1510 0 7 33 c7 31 263 927 326
1140 l32 107 1056 0 1057 0 267 808 c147 444 268 810 267 815 0 4 -490 7
-1090 7 -764 0 -1090 3 -1090 11 0 8 194 711 256 924 l14 51 1283 23 c705 13
1327 26 1381 30 l99 6 293 925 c161 509 294 931 294 938 0 9 -559 12 -2763 12
l-2764 0 -52 -197z"/>
</g>
</svg>
