<?xml version="1.0" standalone="no"?>
<!DOCTYPE svg PUBLIC "-//W3C//DTD SVG 20010904//EN"
 "http://www.w3.org/TR/2001/REC-SVG-20010904/DTD/svg10.dtd">
<svg version="1.0" xmlns="http://www.w3.org/2000/svg"
 width="2363.000000pt" height="884.000000pt" viewBox="0 0 2363.000000 884.000000"
 preserveAspectRatio="xMidYMid meet">

<g transform="translate(0.000000,884.000000) scale(0.100000,-0.100000)"
fill="#000000" stroke="none">
<path d="M2415 8258 c-3 -7 -94 -375 -204 -818 -268 -1077 -265 -1068 -1206
-4520 -499 -1832 -625 -2303 -625 -2341 0 -5 565 -8 1293 -7 l1292 3 400 1562
c220 859 402 1564 405 1566 3 3 194 -677 425 -1511 230 -835 425 -1538 433
-1565 l14 -47 1309 0 1309 0 -5 23 c-15 67 -655 3313 -655 3324 0 10 56 13
284 13 l284 0 25 73 c33 97 1474 4217 1482 4240 7 16 -146 17 -3124 17 -2496
0 -3133 -3 -3136 -12z m2510 -1548 c87 -250 161 -459 166 -464 4 -4 227 -3
509 3 276 7 504 10 506 8 2 -2 -176 -145 -396 -317 -220 -172 -400 -314 -400
-315 0 -2 268 -781 301 -874 18 -53 25 -81 17 -78 -7 2 -196 131 -421 286
-224 154 -410 281 -413 281 -3 0 -188 -137 -411 -305 -223 -168 -406 -304
-408 -303 -1 2 63 219 142 483 78 264 143 483 143 486 0 3 -185 138 -410 300
l-411 294 38 6 c21 4 249 10 506 14 465 7 469 8 478 29 4 11 70 226 145 476
75 250 139 459 142 464 8 14 11 5 177 -474z"/>
<path d="M8968 8258 c-3 -7 -364 -1031 -803 -2275 l-798 -2263 -224 0 c-123 0
-223 -3 -223 -7 0 -5 90 -440 199 -968 179 -861 418 -2029 436 -2127 l7 -38
253 0 254 0 15 53 c8 28 200 725 426 1547 226 822 414 1504 418 1514 6 13 22
-36 56 -165 26 -101 206 -805 400 -1564 l353 -1380 1297 -3 c1233 -2 1297 -1
1292 15 -3 10 -16 70 -30 133 -13 63 -240 909 -504 1880 -695 2550 -766 2818
-1220 4555 l-288 1100 -656 3 c-519 2 -657 0 -660 -10z m687 -3285 c105 -389
190 -711 188 -715 -2 -5 -177 -8 -389 -8 -343 0 -384 2 -384 16 0 12 345 1301
376 1407 3 10 8 16 11 13 3 -3 92 -324 198 -713z"/>
<path d="M10580 8251 c0 -57 77 -355 402 -1556 650 -2405 942 -3476 1424
-5223 l249 -902 1345 0 1346 0 62 213 c81 277 914 3325 1256 4592 169 629 251
940 526 2005 121 470 223 863 226 873 5 16 -59 17 -1243 17 l-1248 0 -459
-2277 c-253 -1253 -462 -2286 -465 -2295 -3 -10 -213 996 -465 2234 -253 1239
-463 2271 -468 2295 l-10 43 -1239 0 c-1201 0 -1239 -1 -1239 -19z"/>
<path d="M17701 8233 c-95 -362 -1535 -5763 -1852 -6944 -104 -389 -189 -709
-189 -713 0 -3 1244 -6 2764 -6 l2765 0 308 933 309 932 -1508 3 c-852 1
-1508 6 -1508 11 0 13 132 479 254 899 58 200 106 366 106 368 0 2 476 4 1058
4 l1057 0 209 628 c115 345 238 714 272 820 l62 192 -1094 0 c-602 0 -1094 3
-1094 8 0 4 61 221 134 482 l133 475 89 7 c49 3 665 16 1369 28 704 12 1287
25 1294 29 9 5 135 386 311 944 l297 937 -2768 0 -2768 0 -10 -37z"/>
</g>
</svg>
