<?xml version="1.0" standalone="no"?>
<!DOCTYPE svg PUBLIC "-//W3C//DTD SVG 20010904//EN"
 "http://www.w3.org/TR/2001/REC-SVG-20010904/DTD/svg10.dtd">
<svg version="1.0" xmlns="http://www.w3.org/2000/svg"
 width="900.000000pt" height="949.000000pt" viewBox="0 0 900.000000 949.000000"
 preserveAspectRatio="xMidYMid meet">

<g transform="translate(0.000000,949.000000) scale(0.100000,-0.100000)"
fill="#000000" stroke="none">
<path d="M7340 7286 c0 -2 7 -9 15 -16 12 -10 15 -10 15 4 0 9 -7 16 -15 16
-8 0 -15 -2 -15 -4z"/>
<path d="M7468 7078 c92 -174 120 -233 172 -358 49 -118 113 -298 130 -365 4
-16 17 -64 28 -105 143 -528 150 -1154 20 -1710 -5 -25 -30 -112 -54 -195
-290 -1002 -1040 -1842 -2015 -2258 -481 -205 -979 -299 -1514 -284 -538 15
-1016 134 -1495 372 l-85 42 -205 -67 c-113 -37 -380 -125 -595 -195 -607
-197 -771 -252 -794 -264 -17 -10 -21 -21 -21 -66 0 -42 3 -55 15 -55 8 0 15
-7 15 -15 0 -12 14 -15 65 -15 51 0 65 -3 65 -15 0 -8 9 -15 20 -15 11 0 23 7
26 15 4 11 21 15 59 15 38 0 55 4 59 15 3 8 12 15 21 15 8 0 15 4 15 10 0 5
18 13 40 16 22 4 40 12 40 19 0 7 18 15 42 18 24 3 44 11 46 16 6 17 30 13 34
-6 3 -16 4 -16 20 0 9 10 32 17 53 17 22 0 38 6 41 15 4 8 12 15 19 15 7 0 15
4 17 9 2 4 13 12 26 15 17 6 22 3 23 -11 0 -10 3 -13 6 -5 2 6 22 15 44 18 21
4 39 10 39 14 0 5 19 11 43 15 25 5 51 17 65 32 12 14 39 27 60 30 20 3 40 11
44 16 3 6 43 12 87 15 45 2 81 8 81 13 0 5 23 11 50 15 30 4 50 12 50 19 0 8
13 13 37 12 20 -1 38 4 41 11 2 7 19 12 37 12 19 0 40 7 49 15 8 8 26 15 40
15 16 0 26 6 26 14 0 17 22 26 61 26 16 0 29 5 29 10 0 13 177 13 182 0 2 -8
75 -16 176 -19 12 -1 22 -7 22 -16 0 -10 10 -15 30 -15 17 0 30 -4 30 -10 0
-5 16 -12 35 -16 20 -3 35 -12 35 -20 0 -10 13 -14 40 -14 22 0 40 -4 40 -9 0
-5 20 -12 45 -15 25 -4 45 -11 45 -17 0 -5 7 -9 15 -9 8 0 15 -7 15 -15 0 -11
11 -15 40 -15 25 0 42 -6 48 -15 4 -9 26 -18 48 -22 21 -3 43 -11 47 -17 6 -8
10 -7 14 2 5 14 63 17 63 3 0 -5 25 -12 57 -16 31 -4 63 -13 70 -21 8 -8 23
-14 34 -14 10 0 19 -4 19 -10 0 -6 33 -10 79 -10 61 0 80 -3 85 -15 4 -13 36
-15 201 -15 167 0 195 -2 195 -15 0 -12 18 -15 100 -15 82 0 100 3 100 15 0
12 18 15 99 15 70 0 101 -4 104 -12 4 -10 6 -10 6 0 1 9 27 12 96 12 78 0 95
3 95 15 0 12 17 15 96 15 71 0 99 4 110 15 10 9 34 15 64 15 27 0 50 4 52 10
2 5 41 11 87 14 46 3 87 9 90 14 3 5 27 12 54 16 31 5 47 12 47 22 0 8 9 14
19 14 11 0 21 5 23 10 2 6 21 13 43 17 22 3 43 11 47 16 5 9 40 14 101 16 9 1
17 8 17 16 0 8 7 15 15 15 8 0 15 5 15 10 0 6 13 10 29 10 16 0 36 7 45 15 8
8 32 15 53 15 26 0 44 6 56 20 9 11 24 20 32 20 8 0 15 4 15 9 0 5 14 12 30
16 17 4 30 11 30 16 0 5 7 9 15 9 8 0 15 7 15 15 0 10 10 15 30 15 17 0 30 4
30 10 0 5 18 13 39 16 22 4 42 13 45 20 3 8 16 14 29 14 19 0 26 7 31 30 4 24
11 30 31 30 16 0 25 6 25 15 0 8 7 15 15 15 8 0 15 4 15 9 0 5 11 12 25 15 14
4 35 16 46 27 11 11 27 18 35 15 8 -3 13 -2 10 3 -7 11 31 51 49 51 8 0 15 7
15 15 0 8 7 15 15 15 8 0 15 5 15 10 0 6 6 10 13 10 7 0 20 9 30 20 9 11 24
20 32 20 8 0 15 6 15 13 0 8 4 7 10 -3 6 -10 10 -11 10 -2 0 6 7 12 15 12 8 0
15 7 15 15 0 8 8 15 18 15 13 0 14 2 3 9 -11 7 -9 13 8 30 11 11 26 21 31 21
6 0 10 6 10 14 0 8 11 17 25 20 14 4 25 11 25 16 0 6 7 10 15 10 8 0 15 8 15
18 0 15 2 15 11 2 8 -11 12 -12 16 -2 2 6 11 12 19 12 8 0 14 7 14 15 0 8 7
15 15 15 10 0 15 10 15 30 0 20 5 30 15 30 8 0 15 7 15 15 0 8 6 15 14 15 8 0
17 11 20 25 4 14 11 25 16 25 6 0 10 7 10 15 0 9 10 15 26 15 17 0 28 6 31 20
3 11 12 20 19 20 20 0 17 18 -3 23 -17 4 -17 5 0 6 9 0 17 8 17 16 0 8 7 15
15 15 9 0 15 9 15 25 0 16 6 25 15 25 8 0 15 7 15 15 0 8 7 15 15 15 8 0 15 9
15 20 0 11 4 20 9 20 5 0 13 9 16 21 4 13 12 18 21 15 8 -3 13 -2 9 3 -8 14 5
41 21 41 8 0 14 7 14 15 0 8 4 15 10 15 5 0 13 12 16 27 4 15 18 37 31 49 12
12 23 25 23 30 0 12 37 44 50 44 6 0 10 11 10 24 0 14 4 27 9 30 4 3 14 26 21
51 7 25 17 45 21 45 5 0 9 7 9 15 0 8 6 15 14 15 8 0 17 11 20 25 4 14 11 25
16 25 6 0 10 14 10 30 0 20 5 30 15 30 10 0 15 10 15 30 0 20 5 30 15 30 10 0
15 8 14 23 -4 45 1 67 16 67 10 0 15 11 16 33 1 17 3 24 6 15 7 -27 23 -21 23
8 0 14 6 32 14 39 8 8 14 38 15 71 1 40 6 61 16 67 9 5 15 22 15 43 0 20 6 42
13 49 29 33 34 42 40 73 4 18 14 40 22 48 11 12 15 38 15 105 0 50 4 89 10 89
5 0 12 16 16 35 3 19 10 35 15 35 5 0 9 7 9 15 0 8 -4 15 -10 15 -13 0 -13 47
0 52 5 2 12 35 16 73 4 39 12 73 18 77 8 5 11 128 11 410 1 491 -3 588 -21
588 -9 0 -14 12 -14 35 0 19 -4 35 -10 35 -6 0 -10 28 -10 64 0 44 -5 69 -15
80 -9 9 -15 34 -15 65 0 37 -4 51 -14 51 -8 0 -15 14 -18 35 -3 27 0 35 12 35
12 0 12 2 2 9 -8 4 -16 27 -19 50 -3 22 -9 41 -13 41 -4 0 -10 18 -13 40 -3
24 -15 48 -31 63 -20 19 -26 34 -26 66 0 30 -4 41 -15 41 -10 0 -15 10 -15 30
0 17 -4 30 -10 30 -5 0 -13 18 -16 40 -4 22 -12 40 -19 40 -7 0 -16 16 -19 35
-4 19 -11 35 -16 35 -6 0 -10 10 -10 21 0 12 -8 28 -17 35 -16 12 -16 15 -3
24 10 6 11 10 3 10 -7 0 -13 12 -13 26 0 14 -7 32 -15 40 -8 9 -15 24 -15 35
0 10 -4 19 -9 19 -5 0 -13 10 -17 22 -3 12 -15 31 -25 42 -11 11 -19 26 -19
33 0 7 -4 13 -10 13 -5 0 -10 14 -10 30 0 20 -5 30 -15 30 -8 0 -15 7 -15 15
0 8 -4 15 -9 15 -5 0 -13 10 -17 22 -8 26 -28 48 -43 48 -6 0 -13 11 -17 25
-3 14 -10 25 -15 25 -5 0 -9 7 -9 15 0 8 -5 15 -10 15 -6 0 12 -42 38 -92z"/>
<path d="M7800 6500 c0 -5 5 -10 10 -10 6 0 10 5 10 10 0 6 -4 10 -10 10 -5 0
-10 -4 -10 -10z"/>
</g>
</svg>
