<?xml version="1.0" standalone="no"?>
<!DOCTYPE svg PUBLIC "-//W3C//DTD SVG 20010904//EN"
 "http://www.w3.org/TR/2001/REC-SVG-20010904/DTD/svg10.dtd">
<svg version="1.0" xmlns="http://www.w3.org/2000/svg"
 width="600.000000pt" height="600.000000pt" viewBox="0 0 600.000000 600.000000"
 preserveAspectRatio="xMidYMid meet">

<g transform="translate(0.000000,600.000000) scale(0.100000,-0.100000)"
fill="#000000" stroke="none">
<path d="M2570 5469 c-764 -38 -1226 -179 -1539 -473 -212 -199 -372 -553
-440 -976 -108 -669 -89 -1716 40 -2248 145 -594 427 -916 964 -1096 363 -122
916 -173 1682 -154 687 16 1137 110 1468 306 309 183 514 492 624 943 79 325
119 846 107 1389 -15 720 -86 1133 -253 1478 -60 125 -170 279 -254 358 -225
210 -541 348 -949 413 -392 63 -937 85 -1450 60z m665 -974 c156 -25 302 -72
440 -140 886 -438 1136 -1567 520 -2345 -77 -97 -237 -244 -340 -312 -116 -76
-243 -138 -375 -182 -166 -55 -239 -67 -430 -73 -252 -8 -432 24 -641 112 -46
19 -91 35 -101 35 -9 0 -131 -27 -270 -60 -470 -113 -516 -122 -538 -110 -41
22 -41 45 11 291 26 129 64 308 82 398 l34 165 -25 55 c-43 98 -92 252 -114
366 -18 87 -22 145 -22 280 0 195 20 318 78 493 179 531 636 925 1186 1022
133 23 378 26 505 5z"/>
<path d="M2875 4164 c-148 -23 -307 -70 -406 -119 -218 -111 -422 -313 -529
-525 -178 -353 -176 -739 7 -1103 l44 -88 -50 -240 c-41 -204 -46 -239 -32
-234 9 2 113 27 231 55 l215 50 120 -54 c227 -104 414 -138 637 -116 150 14
261 46 403 114 544 262 806 891 608 1460 -42 120 -59 156 -129 263 -168 259
-436 444 -743 514 -84 19 -311 33 -376 23z m-300 -475 c12 -13 55 -98 95 -188
84 -191 84 -194 10 -295 -60 -82 -63 -112 -20 -178 39 -58 183 -204 283 -284
118 -96 194 -139 244 -139 38 0 48 6 100 56 64 63 90 79 125 79 33 0 357 -96
374 -111 22 -18 44 -64 44 -90 0 -67 -129 -225 -221 -272 -162 -81 -426 -43
-661 96 -239 141 -507 404 -627 618 -100 178 -127 391 -65 518 28 55 153 197
189 212 35 15 105 3 130 -22z"/>
</g>
</svg>
