<?xml version="1.0" standalone="no"?>
<!DOCTYPE svg PUBLIC "-//W3C//DTD SVG 20010904//EN"
 "http://www.w3.org/TR/2001/REC-SVG-20010904/DTD/svg10.dtd">
<svg version="1.0" xmlns="http://www.w3.org/2000/svg"
 width="850.000000pt" height="674.000000pt" viewBox="0 0 850.000000 674.000000"
 preserveAspectRatio="xMidYMid meet">

<g transform="translate(0.000000,674.000000) scale(0.100000,-0.100000)"
fill="#000000" stroke="none">
<path d="M0 3370 l0 -3370 4250 0 4250 0 0 3370 0 3370 -4250 0 -4250 0 0
-3370z m4575 1544 c149 -30 273 -71 390 -131 253 -128 445 -291 597 -503 217
-303 311 -627 294 -1005 -16 -327 -118 -605 -320 -868 -92 -121 -152 -183
-257 -267 -182 -146 -344 -232 -550 -294 -162 -49 -205 -56 -379 -67 -296 -18
-574 41 -847 181 -340 173 -608 477 -745 844 -39 105 -46 127 -63 211 -45 226
-50 398 -15 605 53 316 189 589 412 824 226 239 489 388 828 468 182 43 448
44 655 2z"/>
<path d="M4065 4759 c-161 -24 -257 -50 -373 -101 -105 -46 -253 -132 -316
-182 -61 -49 -230 -218 -251 -251 -11 -16 -36 -52 -56 -80 -81 -111 -179 -335
-204 -467 -9 -46 -20 -102 -25 -125 -6 -23 -10 -109 -10 -191 0 -247 55 -469
163 -657 22 -38 45 -79 51 -90 27 -48 128 -175 187 -235 255 -258 571 -405
933 -432 256 -19 509 33 749 154 156 78 351 231 433 338 19 25 57 74 84 110
115 150 219 422 245 642 18 146 11 342 -15 448 -17 72 -51 186 -60 205 -5 11
-22 52 -38 90 -79 197 -272 432 -475 578 -285 205 -675 299 -1022 246z m530
-392 c197 -61 311 -130 440 -261 111 -113 176 -220 229 -376 36 -107 39 -125
44 -256 4 -129 2 -153 -23 -259 -96 -416 -449 -713 -890 -750 -129 -11 -359
32 -467 86 -45 23 -67 23 -138 3 -30 -9 -102 -29 -160 -44 -58 -16 -117 -33
-131 -39 -15 -5 -35 -8 -45 -6 -11 2 -31 6 -46 10 -29 6 -58 48 -58 83 0 11
18 56 40 101 22 44 40 86 40 92 0 6 13 35 29 63 48 85 48 88 -3 189 -80 162
-108 308 -95 502 7 110 13 146 44 235 20 58 48 125 63 150 15 25 33 57 42 72
34 62 147 183 223 240 94 70 216 130 332 163 115 34 115 34 290 30 138 -2 171
-6 240 -28z"/>
<path d="M4175 4199 c-100 -24 -125 -34 -210 -81 -113 -64 -203 -141 -267
-232 -104 -148 -138 -249 -145 -427 -5 -115 -3 -134 21 -220 17 -58 48 -132
83 -194 50 -91 55 -103 49 -144 -4 -26 -25 -76 -51 -120 -24 -42 -40 -78 -35
-79 6 -2 43 7 83 21 39 14 100 33 134 42 l62 17 63 -30 c35 -17 97 -44 138
-59 70 -26 85 -28 230 -28 151 0 157 1 250 34 206 75 358 205 449 385 73 145
95 240 88 387 -8 173 -61 312 -171 451 -101 127 -286 243 -436 273 -82 16
-271 19 -335 4z m-74 -352 c39 -41 89 -157 89 -207 0 -29 -9 -51 -36 -86 l-37
-48 18 -32 c45 -85 267 -259 319 -252 12 2 30 21 44 46 46 83 120 91 228 26
85 -51 104 -72 104 -111 0 -47 -34 -117 -69 -142 -49 -35 -120 -61 -167 -61
-103 0 -316 91 -437 186 -154 122 -292 336 -304 471 -5 62 -3 75 23 127 40 83
82 116 144 116 43 0 54 -4 81 -33z"/>
</g>
</svg>
